<svg width="64" height="64" viewBox="0 0 64 64" fill="none" xmlns="http://www.w3.org/2000/svg">
<g clip-path="url(#clip0_55_2)">
<path d="M37.8634 32.0524L62.7837 7.13129C64.4055 5.51028 64.4055 2.88933 62.7837 1.26831C61.1627 -0.352702 58.5417 -0.352702 56.9207 1.26831L31.9996 26.1894L7.07931 1.26831C5.45754 -0.352702 2.83734 -0.352702 1.21633 1.26831C-0.405443 2.88933 -0.405443 5.51028 1.21633 7.13129L26.1367 32.0524L1.21633 56.9735C-0.405443 58.5945 -0.405443 61.2154 1.21633 62.8365C2.02418 63.6451 3.08638 64.0513 4.14782 64.0513C5.20926 64.0513 6.2707 63.6451 7.07931 62.8365L31.9996 37.9154L56.9207 62.8365C57.7293 63.6451 58.7908 64.0513 59.8522 64.0513C60.9137 64.0513 61.9751 63.6451 62.7837 62.8365C64.4055 61.2154 64.4055 58.5945 62.7837 56.9735L37.8634 32.0524Z" fill="#FF0000"/>
</g>
<defs>
<clipPath id="clip0_55_2">
<rect width="64" height="64" fill="white"/>
</clipPath>
</defs>
</svg>
